<svg id="FilledOutline" height="512" viewBox="0 0 512 512" width="512" xmlns="http://www.w3.org/2000/svg"><circle cx="104" cy="312" fill="#ffd91c" r="72"/><path d="m152 392h-96l-8-32h112z" fill="#ecaf4a"/><circle cx="104" cy="312" fill="#f0a91e" r="40"/><path d="m240 72h32v368h-32z" fill="#ecaf4a"/><path d="m488 360-8 32h-144l-8-32z" fill="#ecaf4a"/><path d="m144 464v-24a16 16 0 0 1 16-16h192a16 16 0 0 1 16 16v24z" fill="#ecaf4a"/><path d="m328 240h160v120h-160z" fill="#0093ba"/><g fill="#d69f44"><path d="m240 88h32v16h-32z"/><path d="m144 456h224a16 16 0 0 1 16 16v16a0 0 0 0 1 0 0h-256a0 0 0 0 1 0 0v-16a16 16 0 0 1 16-16z"/><path d="m392 144h32v32h-32z"/><path d="m88 144h32v32h-32z"/></g><path d="m24 56h464a0 0 0 0 1 0 0v16a16 16 0 0 1 -16 16h-432a16 16 0 0 1 -16-16v-16a0 0 0 0 1 0 0z" fill="#ecaf4a"/><path d="m472 96a24.028 24.028 0 0 0 24-24v-16a8 8 0 0 0 -8-8h-464a8 8 0 0 0 -8 8v16a24.028 24.028 0 0 0 24 24h56v40h-8a8 8 0 0 0 -8 8v27.883l-52.65 37.607a8 8 0 0 0 -3.35 6.51v96a79.825 79.825 0 0 0 16.007 47.994 7.948 7.948 0 0 0 .232 1.946l8 32a8 8 0 0 0 7.761 6.06h96a8 8 0 0 0 7.761-6.06l8-32a7.948 7.948 0 0 0 .232-1.946 79.825 79.825 0 0 0 16.007-47.994v-96a8 8 0 0 0 -3.35-6.51l-52.65-37.607v-27.883a8 8 0 0 0 -8-8h-8v-40h68.686l51.314 51.314v268.686h-72a24.027 24.027 0 0 0 -24 24v9.376a24.039 24.039 0 0 0 -16 22.624v16a8 8 0 0 0 8 8h256a8 8 0 0 0 8-8v-16a24.039 24.039 0 0 0 -16-22.624v-9.376a24.027 24.027 0 0 0 -24-24h-72v-268.686l51.314-51.314h68.686v40h-8a8 8 0 0 0 -8 8v28.686l-61.657 61.657a7.976 7.976 0 0 0 -2.343 5.657v120a8 8 0 0 0 .246 1.939h-.007l8 32a8 8 0 0 0 7.761 6.061h144a8 8 0 0 0 7.761-6.06l8-32h-.007a8 8 0 0 0 .246-1.94v-120a7.976 7.976 0 0 0 -2.344-5.657l-61.656-61.657v-28.686a8 8 0 0 0 -8-8h-8v-40zm-376 56h16v16h-16zm49.754 232h-83.508l-4-16h91.508zm8.191-32h-99.89a64 64 0 1 1 99.89 0zm14.055-87.945a79.918 79.918 0 0 0 -128 0v-43.938l50.564-36.117h26.872l50.564 36.117zm232-112.055h16v16h-16zm68.686 80h-121.372l48-48h25.372zm11.314 120h-144v-104h144zm-137.754 32-4-16h139.508l-4 16zm-310.246-312v-8h448v8a8.009 8.009 0 0 1 -8 8h-432a8.009 8.009 0 0 1 -8-8zm171.314 24h28.686v28.686zm172.686 384h-240v-8a8.009 8.009 0 0 1 8-8h224a8.009 8.009 0 0 1 8 8zm-16-40v8h-208v-8a8.009 8.009 0 0 1 8-8h192a8.009 8.009 0 0 1 8 8zm-112-24v-320h16v320zm32-291.314v-28.686h28.686z"/><path d="m104 264a48 48 0 0 0 -38.4 76.809l12.8-9.609a31.717 31.717 0 0 1 -6.4-19.2 32 32 0 0 1 64 0 31.717 31.717 0 0 1 -6.4 19.2l12.793 9.61a48 48 0 0 0 -38.393-76.81z"/><path d="m352 264h16v72h-16z"/><path d="m384 264h16v72h-16z"/><path d="m416 264h16v72h-16z"/><path d="m448 264h16v72h-16z"/><path d="m112 16h256v16h-256z"/><path d="m384 16h16v16h-16z"/></svg>